<svg width="46" height="102" viewBox="0 0 46 102" fill="none" xmlns="http://www.w3.org/2000/svg">
<path d="M21.0002 56.9522C11.0002 66.1579 8.16682 74.1119 8.00016 76.9382C8.00016 74.0311 9.33339 68.4593 10 66.0368C7.6 66.5213 6.66667 73.1025 6.5 76.3325C4.15518 61.1848 7.98309 53.2826 10.3364 51.0445L8.5 52.7128C3.7 53.1973 1.16667 56.1447 0.5 57.5579C0 56.9522 0 55.1353 0 52.1072C0 49.6846 3.66677 47.464 5.50015 46.6565C4.30015 43.7494 6.33349 42.2152 7.50015 41.8114C14.7002 41.8114 20.8335 34.9476 23.0002 31.5156C23.5002 33.3325 23.5002 37.572 23.0002 39.9945C22.5002 42.417 20.5002 40.6001 20.0002 46.0508C19.6002 50.4114 20.5002 55.1353 21.0002 56.9522Z" fill="white"/>
<path d="M27.5 91.4725C21.5 93.895 21.3333 98.942 22 101.163C18.4998 99.1439 11.1995 92.8049 9.99953 83.5993C8.79953 74.3936 12.5 70.881 15.4995 67.2471C21.4995 60.9486 26.6662 52.5101 28.4995 49.0781C38.0995 31.6359 36.4995 13.1439 34.4995 6.07812C37.9995 9.10629 44.3711 19.3229 42.5 35.7542C40.5 53.3176 28.6662 67.6509 22.4995 73.3035C38.4995 61.6753 43.8329 45.8481 44.4995 39.388C45.3329 43.6274 45.8995 54.7711 41.4995 65.4302C37.0995 76.0894 24.9995 83.5993 19.4995 86.0218C33.0995 82.1457 41.1662 71.4866 43.4995 66.6415C43.4995 73.9091 41.1662 79.3598 39.9995 81.1767C38.333 83.5993 33.5 89.05 27.5 91.4725Z" fill="white"/>
<path d="M23.5 0.0228348C32.3 10.682 33.8333 25.0557 33.5 30.9102V31.1923C34.1667 25.4457 34.8 12.4989 32 6.68481C29.2 0.870722 25.1667 -0.179043 23.5 0.0228348Z" fill="white"/>
</svg>
