<svg width="96" height="89" viewBox="0 0 96 89" fill="none" xmlns="http://www.w3.org/2000/svg">
<path d="M0 20C0 8.9543 8.9543 0 20 0H76C87.0457 0 96 8.95431 96 20V68.3748C96 79.4205 87.0457 88.3748 76 88.3748H20C8.9543 88.3748 0 79.4205 0 68.3748V20Z" fill="#107863"/>
<path d="M33.7148 27.8394L19.3242 40.8662C18.4805 41.63 18 42.6802 18 43.7622C18 44.8443 18.4805 45.8945 19.3242 46.6582L33.7148 59.685C34.4648 60.364 35.4727 60.7352 36.5273 60.7352C38.7188 60.7352 40.5 59.1228 40.5 57.1391V50.5514H55.5C57.5742 50.5514 59.25 49.0345 59.25 47.1568V40.3676C59.25 38.49 57.5742 36.973 55.5 36.973H40.5V30.3854C40.5 28.4016 38.7188 26.7892 36.5273 26.7892C35.4727 26.7892 34.4648 27.1711 33.7148 27.8394ZM59.25 26.7892H66.75C68.8242 26.7892 70.5 28.3062 70.5 30.1838V57.3406C70.5 59.2183 68.8242 60.7352 66.75 60.7352H59.25C57.1758 60.7352 55.5 62.2522 55.5 64.1298C55.5 66.0075 57.1758 67.5245 59.25 67.5245H66.75C72.9609 67.5245 78 62.963 78 57.3406V30.1838C78 24.5615 72.9609 20 66.75 20H59.25C57.1758 20 55.5 21.517 55.5 23.3946C55.5 25.2722 57.1758 26.7892 59.25 26.7892Z" fill="white"/>
</svg>
