<svg width="60" height="48" viewBox="0 0 60 48" fill="none" xmlns="http://www.w3.org/2000/svg">
<path d="M15.7148 7.83941L1.32422 20.8662C0.480467 21.63 0 22.6802 0 23.7622C0 24.8443 0.480467 25.8945 1.32422 26.6582L15.7148 39.685C16.4648 40.364 17.4727 40.7352 18.5273 40.7352C20.7188 40.7352 22.5 39.1228 22.5 37.1391V30.5514H37.5C39.5742 30.5514 41.25 29.0345 41.25 27.1568V20.3676C41.25 18.49 39.5742 16.973 37.5 16.973H22.5V10.3854C22.5 8.40164 20.7188 6.78921 18.5273 6.78921C17.4727 6.78921 16.4648 7.1711 15.7148 7.83941ZM41.25 6.78921H48.75C50.8242 6.78921 52.5 8.30617 52.5 10.1838V37.3406C52.5 39.2183 50.8242 40.7352 48.75 40.7352H41.25C39.1758 40.7352 37.5 42.2522 37.5 44.1298C37.5 46.0075 39.1758 47.5245 41.25 47.5245H48.75C54.9609 47.5245 60 42.963 60 37.3406V10.1838C60 4.5615 54.9609 0 48.75 0H41.25C39.1758 0 37.5 1.51696 37.5 3.3946C37.5 5.27224 39.1758 6.78921 41.25 6.78921Z" fill="white"/>
</svg>
