<svg width="1080" height="720" viewBox="0 0 1080 720" fill="none" xmlns="http://www.w3.org/2000/svg">
<g clip-path="url(#clip0_165_632)">
<path d="M1080 0H0V720H1080V0Z" fill="#081E33"/>
<path d="M825 720L715 655L811 589L764 524L753 458L812 393L800 327L733 262L716 196L840 131L717 65L752 0H1080V65V131V196V262V327V393V458V524V589V655V720H825Z" fill="#003366"/>
<path d="M785 720L781 655L802 589L816 524L811 458L841 393L794 327L757 262L787 196L793 131L809 65L862 0H1080V65V131V196V262V327V393V458V524V589V655V720H785Z" fill="#003C6B"/>
<path d="M867 720L797 655L834 589L790 524L805 458L784 393L805 327L861 262L855 196L885 131L854 65L830 0H1080V65V131V196V262V327V393V458V524V589V655V720H867Z" fill="#00456F"/>
<path d="M892 720L875 655L899 589L836 524L854 458L909 393L857 327L884 262L886 196L897 131L886 65L874 0H1080V65V131V196V262V327V393V458V524V589V655V720H892Z" fill="#004D72"/>
<path d="M891 720L903 655L898 589L900 524L853 458L896 393L909 327L879 262L858 196L927 131L897 65L885 0H1080V65V131V196V262V327V393V458V524V589V655V720H891Z" fill="#005574"/>
<path d="M956 720L955 655L919 589L932 524L952 458L907 393L959 327L891 262L903 196L946 131L891 65L904 0H1080V65V131V196V262V327V393V458V524V589V655V720H956Z" fill="#005D76"/>
<path d="M984 720L952 655L984 589L980 524L959 458L963 393L943 327L961 262L942 196L984 131L983 65L963 0H1080V65V131V196V262V327V393V458V524V589V655V720H984Z" fill="#006576"/>
<path d="M976 720L970 655L975 589L964 524L967 458L992 393L1010 327L988 262L964 196L960 131L993 65L960 0H1080V65V131V196V262V327V393V458V524V589V655V720H976Z" fill="#006C72"/>
<path d="M1036 720L1025 655L1016 589L1006 524L1035 458L1030 393L1031 327L1026 262L994 196L997 131L998 65L1010 0H1080V65V131V196V262V327V393V458V524V589V655V720H1036Z" fill="#00726C"/>
<path d="M1041 720L1049 655L1060 589L1047 524L1037 458L1036 393L1051 327L1045 262L1060 196L1050 131L1056 65L1060 0H1080V65V131V196V262V327V393V458V524V589V655V720H1041Z" fill="#107863"/>
</g>
<defs>
<clipPath id="clip0_165_632">
<rect width="1080" height="720" fill="white"/>
</clipPath>
</defs>
</svg>
