<svg width="60" height="49" viewBox="0 0 60 49" fill="none" xmlns="http://www.w3.org/2000/svg">
<path d="M15.7148 8.52707L1.32422 21.6547C0.480467 22.4244 0 23.4828 0 24.5732C0 25.6636 0.480467 26.7219 1.32422 27.4916L15.7148 40.6193C16.4648 41.3035 17.4727 41.6776 18.5273 41.6776C20.7188 41.6776 22.5 40.0527 22.5 38.0536V31.415H37.5C39.5742 31.415 41.25 29.8863 41.25 27.9941V21.1523C41.25 19.2601 39.5742 17.7314 37.5 17.7314H22.5V11.0927C22.5 9.09366 20.7188 7.46873 18.5273 7.46873C17.4727 7.46873 16.4648 7.85359 15.7148 8.52707ZM41.25 7.46873H48.75C50.8242 7.46873 52.5 8.99745 52.5 10.8896V38.2568C52.5 40.1489 50.8242 41.6776 48.75 41.6776H41.25C39.1758 41.6776 37.5 43.2064 37.5 45.0985C37.5 46.9907 39.1758 48.5194 41.25 48.5194H48.75C54.9609 48.5194 60 43.9226 60 38.2568V10.8896C60 5.22378 54.9609 0.626953 48.75 0.626953H41.25C39.1758 0.626953 37.5 2.15566 37.5 4.04784C37.5 5.94002 39.1758 7.46873 41.25 7.46873Z" fill="white"/>
</svg>
